<svg width="100" height="100" viewBox="0 0 100 100" fill="none" xmlns="http://www.w3.org/2000/svg">
<g clip-path="url(#clip0_75_53)">
<path d="M49.9917 0C22.3583 0 1.1127e-05 22.3625 1.1127e-05 50C-0.00437147 56.5673 1.28593 63.0711 3.79711 69.1394C6.30829 75.2076 9.9911 80.7213 14.6349 85.3651C19.2787 90.0089 24.7924 93.6917 30.8607 96.2029C36.9289 98.7141 43.4327 100.004 50 100C77.6375 100 100 77.6375 100 50C99.9958 22.3625 77.45 0 49.9917 0ZM26.5417 60.7292C28.175 62.9083 30.3583 63.8208 33.4458 63.8208C34.9042 63.8208 36.3583 63.6375 37.6292 63.0917C38.9042 62.55 40.3583 61.8167 42.1708 60.7292L47.2667 68C43.0875 71.4583 38.3583 73.0917 32.9042 73.0917C28.5375 73.0917 24.9042 72.1833 21.6333 70.3667C18.458 68.4935 15.9224 65.7051 14.3583 62.3667C12.725 58.9083 11.8125 54.9083 11.8125 50.1792C11.8125 45.6375 12.725 41.4542 14.3542 38C15.9097 34.5588 18.4425 31.6508 21.6375 29.6375C24.725 27.6375 28.5417 26.7292 32.725 26.7292C35.6375 26.7292 38.3625 27.0917 40.5458 28C42.9953 28.9481 45.2685 30.3002 47.2708 32L42.1792 38.9083C40.8866 37.954 39.4833 37.1593 38 36.5417C36.7292 36 35.0917 35.8167 33.6333 35.8167C27.4542 35.8167 24.3625 40.5417 24.3625 50.175C24.1833 55.0917 25.0917 58.5417 26.5458 60.725L26.5417 60.7292ZM76.5417 72C74.725 77.6375 71.9958 81.8208 68.175 84.9083C64.3583 88.0042 59.2667 89.6375 52.9042 90.1833L51.6333 81.6417C55.8125 81.0917 58.9042 80.1833 60.9042 78.725C61.6292 78.1833 63.0875 76.5458 63.0875 76.5458L47.9958 28.1833H60.5375L69.2667 64.3625L78.5417 28.1833H90.7208L76.5417 72Z" fill="black"/>
</g>
<defs>
<clipPath id="clip0_75_53">
<rect width="100" height="100" fill="white"/>
</clipPath>
</defs>
</svg>
