<svg width="84" height="84" viewBox="0 0 84 84" fill="none" xmlns="http://www.w3.org/2000/svg">
<path d="M31.5292 57.6249C31.5292 59.3499 30.1312 60.7499 28.4042 60.7499C26.6771 60.7499 25.2792 59.3499 25.2792 57.6249V28.4583C25.2792 27.0978 26.1604 25.8937 27.4562 25.4791C28.7583 25.0666 30.1687 25.5416 30.9542 26.652L65.9062 76.0353C76.6187 68.477 83.6667 56.0312 83.6667 41.9999C83.6667 19.0833 64.9167 0.333252 42 0.333252C19.0833 0.333252 0.333328 19.0833 0.333328 41.9999C0.333328 64.9166 19.0833 83.6666 42 83.6666C48.65 83.6666 54.9292 82.0478 60.5208 79.2457L31.5292 38.2832V57.6249ZM52.3625 26.3749C52.3625 24.6499 53.7604 23.2499 55.4875 23.2499C57.2146 23.2499 58.6125 24.6499 58.6125 26.3749V55.2082L52.3625 46.402V26.3749Z" fill="#212121"/>
</svg>
